<?xml version="1.0" encoding="UTF-8" standalone="no"?>
<!DOCTYPE svg PUBLIC "-//W3C//DTD SVG 1.1//EN"
 "http://www.w3.org/Graphics/SVG/1.1/DTD/svg11.dtd">
<!-- Generated by graphviz version 2.38.0 (20140413.2041)
 -->
<!-- Title: %3 Pages: 1 -->
<svg width="435pt" height="170pt"
 viewBox="0.00 0.00 434.64 170.12" xmlns="http://www.w3.org/2000/svg" xmlns:xlink="http://www.w3.org/1999/xlink">
<g id="graph0" class="graph" transform="scale(1 1) rotate(0) translate(4 166.125)">
<title>%3</title>
<polygon fill="white" stroke="none" points="-4,4 -4,-166.125 430.641,-166.125 430.641,4 -4,4"/>
<!-- &#45;1 -->
<g id="node1" class="node"><title>&#45;1</title>
<polygon fill="lightgray" stroke="black" points="307.31,-95.9117 283.31,-95.9117 283.31,-77.9117 307.31,-77.9117 307.31,-95.9117"/>
<text text-anchor="middle" x="295.31" y="-84.7117" font-family="Times New Roman,serif" font-size="9.00">&#45;1</text>
</g>
<!-- 0 -->
<g id="node9" class="node"><title>0</title>
<ellipse fill="lightblue" stroke="black" cx="283.31" cy="-14.8492" rx="14.7" ry="14.7"/>
<text text-anchor="middle" x="283.31" y="-12.6492" font-family="Times New Roman,serif" font-size="9.00">0</text>
</g>
<!-- &#45;1&#45;&gt;0 -->
<g id="edge1" class="edge"><title>&#45;1&#45;&gt;0</title>
<path fill="none" stroke="green" stroke-width="0.338232" d="M293.933,-77.8746C292.34,-68.572 289.643,-52.8252 287.365,-39.5264"/>
<polygon fill="green" stroke="green" stroke-width="0.338232" points="290.795,-38.8212 285.657,-29.5556 283.896,-40.0029 290.795,-38.8212"/>
</g>
<!-- 1 -->
<g id="node10" class="node"><title>1</title>
<ellipse fill="lightblue" stroke="black" cx="331.31" cy="-14.8492" rx="14.7" ry="14.7"/>
<text text-anchor="middle" x="331.31" y="-12.6492" font-family="Times New Roman,serif" font-size="9.00">1</text>
</g>
<!-- &#45;1&#45;&gt;1 -->
<g id="edge2" class="edge"><title>&#45;1&#45;&gt;1</title>
<path fill="none" stroke="green" stroke-width="0.370267" d="M299.439,-77.8746C304.462,-68.0985 313.142,-51.2057 320.177,-37.5161"/>
<polygon fill="green" stroke="green" stroke-width="0.370267" points="323.475,-38.7557 324.932,-28.2615 317.248,-35.5565 323.475,-38.7557"/>
</g>
<!-- 2 -->
<g id="node11" class="node"><title>2</title>
<ellipse fill="lightblue" stroke="black" cx="223.31" cy="-14.8492" rx="14.7" ry="14.7"/>
<text text-anchor="middle" x="223.31" y="-12.6492" font-family="Times New Roman,serif" font-size="9.00">2</text>
</g>
<!-- &#45;1&#45;&gt;2 -->
<g id="edge3" class="edge"><title>&#45;1&#45;&gt;2</title>
<path fill="none" stroke="red" stroke-width="0.587091" d="M287.05,-77.8746C275.955,-67.0781 255.94,-47.6015 241.29,-33.3456"/>
<polygon fill="red" stroke="red" stroke-width="0.587091" points="243.401,-30.5166 233.793,-26.051 238.519,-35.5334 243.401,-30.5166"/>
</g>
<!-- 3 -->
<g id="node12" class="node"><title>3</title>
<ellipse fill="lightblue" stroke="black" cx="175.31" cy="-14.8492" rx="14.7" ry="14.7"/>
<text text-anchor="middle" x="175.31" y="-12.6492" font-family="Times New Roman,serif" font-size="9.00">3</text>
</g>
<!-- &#45;1&#45;&gt;3 -->
<g id="edge4" class="edge"><title>&#45;1&#45;&gt;3</title>
<path fill="none" stroke="red" stroke-width="0.406912" d="M288.05,-77.7911C284.223,-73.8196 279.297,-69.1618 274.31,-65.6985 243.938,-44.6106 232.012,-46.9509 199.31,-29.6985 198.49,-29.2664 197.659,-28.821 196.821,-28.3667"/>
<polygon fill="red" stroke="red" stroke-width="0.406912" points="198.346,-25.209 187.914,-23.362 194.918,-31.3118 198.346,-25.209"/>
</g>
<!-- &#45;2 -->
<g id="node2" class="node"><title>&#45;2</title>
<polygon fill="lightgray" stroke="black" points="141.31,-162.125 117.31,-162.125 117.31,-144.125 141.31,-144.125 141.31,-162.125"/>
<text text-anchor="middle" x="129.31" y="-150.925" font-family="Times New Roman,serif" font-size="9.00">&#45;2</text>
</g>
<!-- &#45;2&#45;&gt;0 -->
<g id="edge5" class="edge"><title>&#45;2&#45;&gt;0</title>
<path fill="none" stroke="green" stroke-width="0.244703" d="M141.534,-152.13C189.815,-151.869 366.258,-148.151 400.31,-108.125 412.528,-93.7628 410.968,-81.2534 400.31,-65.6985 375.257,-29.1362 347.289,-48.8314 307.31,-29.6985 306.474,-29.2987 305.629,-28.8808 304.78,-28.4496"/>
<polygon fill="green" stroke="green" stroke-width="0.244703" points="306.272,-25.2765 295.818,-23.5531 302.915,-31.4194 306.272,-25.2765"/>
</g>
<!-- &#45;2&#45;&gt;1 -->
<g id="edge6" class="edge"><title>&#45;2&#45;&gt;1</title>
<path fill="none" stroke="green" stroke-width="0.223163" stroke-dasharray="1,5" d="M141.645,-152.266C192.082,-152.555 381.678,-150.756 418.31,-108.125 430.599,-93.8233 427.764,-82.0129 418.31,-65.6985 404.869,-42.5064 376.12,-29.1788 355.342,-22.2397"/>
<polygon fill="green" stroke="green" stroke-width="0.223163" points="356.193,-18.8396 345.606,-19.2529 354.14,-25.5318 356.193,-18.8396"/>
</g>
<!-- &#45;2&#45;&gt;2 -->
<g id="edge7" class="edge"><title>&#45;2&#45;&gt;2</title>
<path fill="none" stroke="green" stroke-width="0.286031" stroke-dasharray="1,5" d="M129.149,-143.953C129.221,-127.625 131.387,-90.4186 148.31,-65.6985 151.906,-60.4446 181.292,-41.6936 202.191,-28.7493"/>
<polygon fill="green" stroke="green" stroke-width="0.286031" points="204.122,-31.6711 210.801,-23.4468 200.451,-25.7108 204.122,-31.6711"/>
</g>
<!-- &#45;2&#45;&gt;3 -->
<g id="edge8" class="edge"><title>&#45;2&#45;&gt;3</title>
<path fill="none" stroke="green" stroke-width="0.373317" d="M117.016,-151.938C91.6076,-150.806 33.5722,-144.192 8.30953,-108.125 -2.50821,-92.6804 -2.95672,-80.8189 8.30953,-65.6985 41.2174,-21.5329 111.763,-14.972 149.782,-14.8678"/>
<polygon fill="green" stroke="green" stroke-width="0.373317" points="149.979,-18.3704 160.022,-14.9957 150.067,-11.371 149.979,-18.3704"/>
</g>
<!-- 100 -->
<g id="node13" class="node"><title>100</title>
<ellipse fill="white" stroke="black" cx="80.3095" cy="-86.9117" rx="21.4286" ry="21.4286"/>
<text text-anchor="middle" x="80.3095" y="-84.7117" font-family="Times New Roman,serif" font-size="9.00">100</text>
</g>
<!-- &#45;2&#45;&gt;100 -->
<g id="edge30" class="edge"><title>&#45;2&#45;&gt;100</title>
<path fill="none" stroke="green" stroke-width="0.364581" d="M123.104,-143.992C117.07,-136.086 107.598,-123.673 99.0977,-112.533"/>
<polygon fill="green" stroke="green" stroke-width="0.364581" points="101.708,-110.185 92.8596,-104.358 96.1436,-114.431 101.708,-110.185"/>
</g>
<!-- &#45;3 -->
<g id="node3" class="node"><title>&#45;3</title>
<polygon fill="lightgray" stroke="black" points="181.31,-95.9117 157.31,-95.9117 157.31,-77.9117 181.31,-77.9117 181.31,-95.9117"/>
<text text-anchor="middle" x="169.31" y="-84.7117" font-family="Times New Roman,serif" font-size="9.00">&#45;3</text>
</g>
<!-- &#45;3&#45;&gt;1 -->
<g id="edge9" class="edge"><title>&#45;3&#45;&gt;1</title>
<path fill="none" stroke="green" stroke-width="0.311085" d="M175.989,-77.872C179.807,-73.7256 184.903,-68.8836 190.31,-65.6985 237.185,-38.0817 257.433,-51.4319 307.31,-29.6985 308.158,-29.3286 309.015,-28.936 309.874,-28.5262"/>
<polygon fill="green" stroke="green" stroke-width="0.311085" points="311.701,-31.5191 318.882,-23.7292 308.41,-25.3407 311.701,-31.5191"/>
</g>
<!-- &#45;3&#45;&gt;2 -->
<g id="edge10" class="edge"><title>&#45;3&#45;&gt;2</title>
<path fill="none" stroke="green" stroke-width="0.132911" d="M175.504,-77.8746C183.488,-67.5161 197.63,-49.1677 208.468,-35.1057"/>
<polygon fill="green" stroke="green" stroke-width="0.132911" points="211.372,-37.0709 214.705,-27.0138 205.828,-32.7976 211.372,-37.0709"/>
</g>
<!-- &#45;3&#45;&gt;3 -->
<g id="edge11" class="edge"><title>&#45;3&#45;&gt;3</title>
<path fill="none" stroke="red" stroke-width="0.446381" d="M169.998,-77.8746C170.782,-68.7202 172.1,-53.3256 173.227,-40.1641"/>
<polygon fill="red" stroke="red" stroke-width="0.446381" points="176.747,-40.0819 174.113,-29.8197 169.773,-39.4845 176.747,-40.0819"/>
</g>
<!-- &#45;4 -->
<g id="node4" class="node"><title>&#45;4</title>
<polygon fill="lightgray" stroke="black" points="41.3095,-95.9117 17.3095,-95.9117 17.3095,-77.9117 41.3095,-77.9117 41.3095,-95.9117"/>
<text text-anchor="middle" x="29.3095" y="-84.7117" font-family="Times New Roman,serif" font-size="9.00">&#45;4</text>
</g>
<!-- &#45;4&#45;&gt;0 -->
<g id="edge12" class="edge"><title>&#45;4&#45;&gt;0</title>
<path fill="none" stroke="red" stroke-width="0.121448" stroke-dasharray="1,5" d="M35.8474,-77.6138C39.6237,-73.3918 44.7252,-68.56 50.3095,-65.6985 129.521,-25.1094 161.624,-53.7818 247.31,-29.6985 251.589,-28.4958 256.069,-26.9858 260.358,-25.4086"/>
<polygon fill="red" stroke="red" stroke-width="0.121448" points="261.786,-28.6085 269.836,-21.7198 259.248,-22.0851 261.786,-28.6085"/>
</g>
<!-- &#45;4&#45;&gt;2 -->
<g id="edge13" class="edge"><title>&#45;4&#45;&gt;2</title>
<path fill="none" stroke="red" stroke-width="0.438559" d="M35.9135,-77.7383C39.709,-73.5528 44.808,-68.7161 50.3095,-65.6985 110.042,-32.9354 136.047,-54.9824 199.31,-29.6985 200.169,-29.3548 201.036,-28.9845 201.903,-28.5935"/>
<polygon fill="red" stroke="red" stroke-width="0.438559" points="203.693,-31.6072 210.946,-23.8843 200.46,-25.3985 203.693,-31.6072"/>
</g>
<!-- &#45;4&#45;&gt;3 -->
<g id="edge14" class="edge"><title>&#45;4&#45;&gt;3</title>
<path fill="none" stroke="green" stroke-width="0.332897" d="M36.4721,-77.6458C40.2735,-73.6372 45.2067,-68.9901 50.3095,-65.6985 82.5777,-44.8839 124.935,-30.2488 151.127,-22.4381"/>
<polygon fill="green" stroke="green" stroke-width="0.332897" points="152.326,-25.735 160.964,-19.5999 150.385,-19.0094 152.326,-25.735"/>
</g>
<!-- &#45;5 -->
<g id="node5" class="node"><title>&#45;5</title>
<polygon fill="lightgray" stroke="black" points="349.31,-95.9117 325.31,-95.9117 325.31,-77.9117 349.31,-77.9117 349.31,-95.9117"/>
<text text-anchor="middle" x="337.31" y="-84.7117" font-family="Times New Roman,serif" font-size="9.00">&#45;5</text>
</g>
<!-- &#45;5&#45;&gt;0 -->
<g id="edge15" class="edge"><title>&#45;5&#45;&gt;0</title>
<path fill="none" stroke="red" stroke-width="0.333706" stroke-dasharray="1,5" d="M331.115,-77.8746C323.131,-67.5161 308.989,-49.1677 298.151,-35.1057"/>
<polygon fill="red" stroke="red" stroke-width="0.333706" points="300.791,-32.7976 291.914,-27.0138 295.247,-37.0709 300.791,-32.7976"/>
</g>
<!-- &#45;5&#45;&gt;1 -->
<g id="edge16" class="edge"><title>&#45;5&#45;&gt;1</title>
<path fill="none" stroke="red" stroke-width="0.874101" d="M336.621,-77.8746C335.837,-68.7202 334.519,-53.3256 333.392,-40.1641"/>
<polygon fill="red" stroke="red" stroke-width="0.874101" points="336.847,-39.4845 332.506,-29.8197 329.872,-40.0819 336.847,-39.4845"/>
</g>
<!-- &#45;5&#45;&gt;2 -->
<g id="edge17" class="edge"><title>&#45;5&#45;&gt;2</title>
<path fill="none" stroke="green" stroke-width="0.130976" d="M329.983,-77.8844C326.14,-73.9367 321.219,-69.272 316.31,-65.6985 293.859,-49.3578 265.39,-34.8915 245.901,-25.8086"/>
<polygon fill="green" stroke="green" stroke-width="0.130976" points="247.157,-22.535 236.607,-21.5682 244.252,-28.9035 247.157,-22.535"/>
</g>
<!-- &#45;5&#45;&gt;3 -->
<g id="edge18" class="edge"><title>&#45;5&#45;&gt;3</title>
<path fill="none" stroke="green" stroke-width="0.300524" d="M330.63,-77.872C326.812,-73.7256 321.716,-68.8836 316.31,-65.6985 269.434,-38.0817 249.186,-51.4319 199.31,-29.6985 198.461,-29.3286 197.604,-28.936 196.745,-28.5262"/>
<polygon fill="green" stroke="green" stroke-width="0.300524" points="198.209,-25.3407 187.737,-23.7292 194.918,-31.5191 198.209,-25.3407"/>
</g>
<!-- &#45;6 -->
<g id="node6" class="node"><title>&#45;6</title>
<polygon fill="lightgray" stroke="black" points="223.31,-95.9117 199.31,-95.9117 199.31,-77.9117 223.31,-77.9117 223.31,-95.9117"/>
<text text-anchor="middle" x="211.31" y="-84.7117" font-family="Times New Roman,serif" font-size="9.00">&#45;6</text>
</g>
<!-- &#45;6&#45;&gt;0 -->
<g id="edge19" class="edge"><title>&#45;6&#45;&gt;0</title>
<path fill="none" stroke="green" stroke-width="0.239405" d="M219.569,-77.8746C230.664,-67.0781 250.679,-47.6015 265.329,-33.3456"/>
<polygon fill="green" stroke="green" stroke-width="0.239405" points="268.1,-35.5334 272.826,-26.051 263.218,-30.5166 268.1,-35.5334"/>
</g>
<!-- &#45;6&#45;&gt;1 -->
<g id="edge20" class="edge"><title>&#45;6&#45;&gt;1</title>
<path fill="none" stroke="green" stroke-width="0.166019" d="M218.569,-77.7911C222.396,-73.8196 227.322,-69.1618 232.31,-65.6985 262.681,-44.6106 274.607,-46.9509 307.31,-29.6985 308.129,-29.2664 308.96,-28.821 309.798,-28.3667"/>
<polygon fill="green" stroke="green" stroke-width="0.166019" points="311.701,-31.3118 318.705,-23.362 308.273,-25.209 311.701,-31.3118"/>
</g>
<!-- &#45;6&#45;&gt;2 -->
<g id="edge21" class="edge"><title>&#45;6&#45;&gt;2</title>
<path fill="none" stroke="red" stroke-width="0.402711" d="M212.686,-77.8746C214.279,-68.572 216.976,-52.8252 219.254,-39.5264"/>
<polygon fill="red" stroke="red" stroke-width="0.402711" points="222.723,-40.0029 220.962,-29.5556 215.824,-38.8212 222.723,-40.0029"/>
</g>
<!-- &#45;6&#45;&gt;3 -->
<g id="edge22" class="edge"><title>&#45;6&#45;&gt;3</title>
<path fill="none" stroke="green" stroke-width="1.02352" d="M207.18,-77.8746C202.157,-68.0985 193.477,-51.2057 186.443,-37.5161"/>
<polygon fill="green" stroke="green" stroke-width="1.02352" points="189.371,-35.5565 181.687,-28.2615 183.145,-38.7557 189.371,-35.5565"/>
</g>
<!-- &#45;7 -->
<g id="node7" class="node"><title>&#45;7</title>
<polygon fill="lightgray" stroke="black" points="265.31,-95.9117 241.31,-95.9117 241.31,-77.9117 265.31,-77.9117 265.31,-95.9117"/>
<text text-anchor="middle" x="253.31" y="-84.7117" font-family="Times New Roman,serif" font-size="9.00">&#45;7</text>
</g>
<!-- &#45;7&#45;&gt;0 -->
<g id="edge23" class="edge"><title>&#45;7&#45;&gt;0</title>
<path fill="none" stroke="red" stroke-width="0.320995" d="M256.751,-77.8746C260.887,-68.2142 267.999,-51.6046 273.823,-38.0034"/>
<polygon fill="red" stroke="red" stroke-width="0.320995" points="277.057,-39.3442 277.775,-28.7738 270.622,-36.5888 277.057,-39.3442"/>
</g>
<!-- &#45;7&#45;&gt;1 -->
<g id="edge24" class="edge"><title>&#45;7&#45;&gt;1</title>
<path fill="none" stroke="red" stroke-width="0.330058" d="M261.804,-77.5572C265.592,-73.8782 270.134,-69.5303 274.31,-65.6985 286.814,-54.2245 301.202,-41.6464 312.394,-31.9954"/>
<polygon fill="red" stroke="red" stroke-width="0.330058" points="314.939,-34.423 320.245,-25.2525 310.378,-29.1126 314.939,-34.423"/>
</g>
<!-- &#45;7&#45;&gt;2 -->
<g id="edge25" class="edge"><title>&#45;7&#45;&gt;2</title>
<path fill="none" stroke="red" stroke-width="0.72809" d="M249.868,-77.8746C245.732,-68.2142 238.62,-51.6046 232.796,-38.0034"/>
<polygon fill="red" stroke="red" stroke-width="0.72809" points="235.997,-36.5888 228.844,-28.7738 229.563,-39.3442 235.997,-36.5888"/>
</g>
<!-- &#45;7&#45;&gt;3 -->
<g id="edge26" class="edge"><title>&#45;7&#45;&gt;3</title>
<path fill="none" stroke="red" stroke-width="0.22889" d="M244.815,-77.5572C241.027,-73.8782 236.485,-69.5303 232.31,-65.6985 219.805,-54.2245 205.417,-41.6464 194.225,-31.9954"/>
<polygon fill="red" stroke="red" stroke-width="0.22889" points="196.241,-29.1126 186.374,-25.2525 191.68,-34.423 196.241,-29.1126"/>
</g>
<!-- &#45;8 -->
<g id="node8" class="node"><title>&#45;8</title>
<polygon fill="lightgray" stroke="black" points="391.31,-95.9117 367.31,-95.9117 367.31,-77.9117 391.31,-77.9117 391.31,-95.9117"/>
<text text-anchor="middle" x="379.31" y="-84.7117" font-family="Times New Roman,serif" font-size="9.00">&#45;8</text>
</g>
<!-- &#45;8&#45;&gt;0 -->
<g id="edge27" class="edge"><title>&#45;8&#45;&gt;0</title>
<path fill="none" stroke="green" stroke-width="0.773729" d="M371.444,-77.6851C367.628,-73.868 362.887,-69.3733 358.31,-65.6985 341.045,-51.838 319.931,-38.0584 304.51,-28.5114"/>
<polygon fill="green" stroke="green" stroke-width="0.773729" points="306.088,-25.374 295.729,-23.1511 302.441,-31.3488 306.088,-25.374"/>
</g>
<!-- &#45;8&#45;&gt;1 -->
<g id="edge28" class="edge"><title>&#45;8&#45;&gt;1</title>
<path fill="none" stroke="red" stroke-width="0.170368" d="M373.803,-77.8746C366.854,-67.7318 354.657,-49.9283 345.108,-35.9895"/>
<polygon fill="red" stroke="red" stroke-width="0.170368" points="347.836,-33.7786 339.296,-27.5071 342.061,-37.7349 347.836,-33.7786"/>
</g>
<!-- &#45;8&#45;&gt;2 -->
<g id="edge29" class="edge"><title>&#45;8&#45;&gt;2</title>
<path fill="none" stroke="green" stroke-width="0.325226" d="M372.189,-77.5791C368.399,-73.5536 363.462,-68.9114 358.31,-65.6985 318.581,-40.9266 303.16,-46.1043 259.31,-29.6985 255.147,-28.141 250.722,-26.4601 246.452,-24.8245"/>
<polygon fill="green" stroke="green" stroke-width="0.325226" points="247.553,-21.4979 236.963,-21.1698 245.037,-28.0302 247.553,-21.4979"/>
</g>
<!-- 100&#45;&gt;2 -->
<g id="edge31" class="edge"><title>100&#45;&gt;2</title>
<path fill="none" stroke="green" stroke-width="0.30931" d="M98.2508,-75.004C103.661,-71.8643 109.663,-68.5265 115.31,-65.6985 151.627,-47.5098 162.989,-47.8808 199.31,-29.6985 200.138,-29.2839 200.977,-28.8534 201.821,-28.4117"/>
<polygon fill="green" stroke="green" stroke-width="0.30931" points="203.704,-31.3701 210.758,-23.4657 200.314,-25.2454 203.704,-31.3701"/>
</g>
</g>
</svg>
